<svg version="1.1" id="Layer_1" xmlns:x="ns_extend;" xmlns:i="ns_ai;" xmlns:graph="ns_graphs;" xmlns="http://www.w3.org/2000/svg" xmlns:xlink="http://www.w3.org/1999/xlink" x="0px" y="0px" viewBox="0 0 276.1 59" style="enable-background:new 0 0 276.1 59;" xml:space="preserve">
 <style type="text/css">
  .st0{fill:#03363D;}
 </style>
 <metadata>
  <sfw xmlns="ns_sfw;">
   <slices>
   </slices>
   <sliceSourceBounds bottomLeftOrigin="true" height="59" width="276.1" x="-90.5" y="-18.7">
   </sliceSourceBounds>
  </sfw>
 </metadata>
 <g>
  <path class="st0" d="M11.8,0v58.2H0V0H11.8z">
  </path>
  <path class="st0" d="M46.8,10.9c5.6,0,10.1,1.8,13.5,5.3c3.4,3.5,5.1,8.4,5.1,14.7v27.4H53.7V32.4c0-3.7-0.9-6.5-2.8-8.5
		c-1.9-2-4.4-3-7.6-3c-3.3,0-5.8,1-7.8,3c-1.9,2-2.8,4.8-2.8,8.5v25.8H20.9V11.5h11.8v5.8c1.6-2,3.6-3.6,6-4.7
		C41.2,11.5,43.9,10.9,46.8,10.9z">
  </path>
  <path class="st0" d="M87.9,21.2v22.6c0,1.6,0.4,2.7,1.1,3.5c0.8,0.7,2.1,1,3.9,1h5.5v9.9h-7.4C81,58.2,76,53.4,76,43.7V21.2h-5.6
		v-9.7H76V0h11.9v11.5h10.5v9.7H87.9z">
  </path>
  <path class="st0" d="M116.1,18.8c1.5-2.5,3.5-4.4,5.9-5.8c2.5-1.4,5.3-2.1,8.4-2.1v12.4h-3.1c-3.7,0-6.5,0.9-8.4,2.6
		c-1.9,1.7-2.8,4.8-2.8,9.1v23.3h-11.8V11.5h11.8V18.8z">
  </path>
  <path class="st0" d="M147.7,11.5v46.7h-11.8V11.5H147.7z">
  </path>
  <path class="st0" d="M182.7,10.9c5.6,0,10.1,1.8,13.5,5.3c3.4,3.5,5.1,8.4,5.1,14.7v27.4h-11.8V32.4c0-3.7-0.9-6.5-2.8-8.5
		c-1.9-2-4.4-3-7.6-3c-3.3,0-5.8,1-7.8,3c-1.9,2-2.8,4.8-2.8,8.5v25.8h-11.8V11.5h11.8v5.8c1.6-2,3.6-3.6,6-4.7
		C177.1,11.5,179.8,10.9,182.7,10.9z">
  </path>
  <path class="st0" d="M221.8,11.5v46.7H210V11.5H221.8z">
  </path>
  <path class="st0" d="M251.7,59c-4.5,0-8.5-1-12.1-2.9c-3.6-2-6.4-4.9-8.5-8.5c-2-3.7-3-7.9-3-12.6c0-4.8,1-9,3.1-12.6
		c2.1-3.7,5-6.5,8.7-8.4c3.7-2,7.7-3,12.2-3c4.5,0,8.6,1,12.2,3c3.7,2,6.5,4.8,8.6,8.4c2.1,3.7,3.2,7.9,3.2,12.6
		c0,4.8-1.1,9-3.3,12.6c-2.1,3.7-5.1,6.5-8.8,8.5C260.4,58,256.3,59,251.7,59z M251.7,48.7c2.1,0,4.1-0.5,6-1.5
		c1.9-1.1,3.4-2.6,4.6-4.7c1.1-2.1,1.7-4.6,1.7-7.6c0-4.4-1.2-7.8-3.5-10.2c-2.3-2.4-5.1-3.6-8.5-3.6s-6.2,1.2-8.5,3.6
		c-2.2,2.4-3.4,5.8-3.4,10.2s1.1,7.9,3.3,10.3C245.5,47.5,248.3,48.7,251.7,48.7z">
  </path>
 </g>
</svg>