<?xml version="1.0" encoding="UTF-8"?>
<svg id="Layer_1" xmlns="http://www.w3.org/2000/svg" viewBox="0 0 952.09 188.5">
  <defs>
    <style>.cls-1{fill:currentColor;}</style>
  </defs>
  <path class="cls-1" d="m70.95,121.26c-.11-.46-.18-.93-.33-1.37-1.94-5.73-3.94-11.4-7.49-16.44-4.94-7.01-11.66-10.38-20.15-10.87-5.22-.3-10.42-1.05-15.62-1.59-.77-.08-1.14-.47-1.35-1.21-1.62-5.58-2.17-11.18-.02-16.72.83-2.14,2.14-4.09,3.29-6.1.61-1.08,1.44-2.04,1.98-3.15,2.28-4.6,1.59-8.92-1.91-12.71-3.58-3.87-7.88-6.68-12.73-8.76-5.34-2.3-10.66-4.69-15.14-8.53-1.89-1.62-1.94-1.58-.2-3.39,3.56-3.72,5.96-8.07,6.97-13.11.88-4.42.17-8.74-1.22-12.97-.41-1.25-.9-2.47-1.45-3.98,1.1,0,2.08,0,3.05,0,18.31-.02,36.63-.04,54.94-.06,4.54,0,9.07-.07,13.61-.05.37,0,.96.37,1.08.7,3.35,9.61,6.9,19.17,9.87,28.9,1.61,5.27,2.21,10.85,3.28,16.29.77,3.91,2.22,7.33,6.16,9.21,4,1.91,11.11.05,12.52-4.99.76-2.71.22-5.17-1.95-6.97-2.36-1.96-4.76-3.88-7.19-5.76-.8-.62-1.21-1.32-1.11-2.33.22-2.1.37-4.21.66-6.3.35-2.57-.18-4.83-1.94-6.81-.59-.66-1.04-1.48-1.43-2.29-1.21-2.52-3-4.54-5.1-6.36-2.13-1.84-4.23-3.74-6.25-5.7-1.93-1.86-2.87-4.21-3.14-6.86-.08-.76.24-.98.89-.97,1.25.01,2.5.02,3.75.05,7.2.21,14.4.24,21.58.69,10.25.64,18.02,5.16,21.91,15.08,1.64,4.17,1.79,8.59,1.79,12.98.05,31.93.05,63.87.05,95.8,0,12.32,0,24.63-.04,36.95-.01,4.63-.54,9.19-2.45,13.47-3.46,7.73-9.46,12.27-17.88,13.05-5.53.51-11.14.39-16.71.32-8.57-.12-17.14-.36-25.71-.7-4.22-.17-8.38.48-12.56.64-7.27.28-14.56.13-21.84.14-1.96,0-3.91-.07-5.87-.08-.82,0-1.27-.26-1.46-1.15-.51-2.39-1.19-4.74-1.7-7.12-.69-3.25.35-5.93,2.82-8.14,1.53-1.38,1.47-1.42.03-2.97-2.06-2.21-4.64-3.59-7.39-4.73-.92-.38-1.83-.8-2.71-1.25-3.69-1.87-5.75-4.84-5.85-9-.15-6.63,1.7-12.67,5.53-18.1.25-.36.63-.68,1.02-.87,4.71-2.28,9.62-3.34,14.87-2.41,1.27.23,2.57.41,3.84.38,1.67-.04,2.94.65,4.19,1.61,5.09,3.9,9.28,8.56,11.98,14.41,1.79,3.88,2.63,8.03,2.94,12.26.23,3.14.17,6.29.32,9.44.08,1.77.17,3.57.51,5.3.43,2.21,1.91,3.73,3.9,4.74,1.06.54,1.56.21,1.56-.98,0-.5-.02-1-.07-1.49-.13-1.34.36-2.32,1.71-2.62,1-.22,1.06-.85,1.05-1.66-.1-6.34-.21-12.69-.27-19.03-.03-3.15.2-6.31,0-9.44-.47-7.19-3.26-13.35-9.35-17.46-4.44-3-9.17-5.62-13.94-8.09-3.7-1.91-7.85-2.42-12-2.47-3.45-.04-6.91.08-10.36.2-.95.03-1.33-.2-1.33-1.22-.01-2,0-3.96.8-5.86.72-1.69,1.84-3.08,3.54-3.66,4.09-1.37,8.18-2.82,12.38-3.73,5.95-1.28,11.34.65,16.33,3.83,5.24,3.34,9.97,7.33,14.64,11.39,1.18,1.02,2.42,1.97,3.63,2.95.09-.06.18-.11.26-.17Zm-16.1-49.07c1.79-1.25,3.3-2.5,4.99-3.43,3.57-1.97,7.44-1.68,11.33-1.29,3.84.39,7.69.61,11.54.89.34.02.7-.08,1.14-.13-.66-1.68-1.79-2.75-3.03-3.74-2.88-2.29-6.28-3.53-9.65-4.83-2.42-.93-4.52-2.28-6.12-4.34-1.48-1.9-1.35-3.15.46-4.72.53-.46,1.25-.84,1.54-1.43.31-.64.34-1.49.25-2.22-.03-.26-.73-.58-1.16-.64-7.85-1.05-15.02.78-21.55,5.16-.36.24-.64.97-.56,1.4.22,1.09.64,2.14,1.03,3.18,2.3,6.01,6.88,10.62,9.81,16.13Z"/>
  <path class="cls-1" d="m584.51,142.46c-.67.05-1.14.11-1.62.11-5.45,0-10.9-.04-16.36.02-1.44.02-2.35-.44-3.18-1.65-6.57-9.53-13.21-19.01-19.86-28.49-.25-.36-.86-.67-1.31-.68-4.58-.05-9.16-.02-13.73-.07-1.01-.01-1.03.52-1.02,1.25.02,9.08.03,18.16.02,27.25,0,2.66.4,2.33-2.42,2.35-4.16.03-8.32,0-12.49-.01-1.69,0-1.71,0-1.71-1.72,0-11.07.01-22.15,0-33.22,0-18.58-.02-37.16-.07-55.74,0-1.06.5-1.12,1.3-1.12,5.99.01,11.99,0,17.98,0,6.45,0,12.9-.09,19.35.03,6.53.12,12.77,1.59,18.05,5.56,2.72,2.05,5.19,4.55,7.37,7.19,6.81,8.23,7.86,17.6,4.53,27.47-2.74,8.11-8.57,13.66-16.03,17.61-1.52.81-1.49.74-.46,2.21,5.86,8.41,11.7,16.83,17.53,25.25,1.23,1.77,2.4,3.59,3.58,5.39.17.26.29.55.53,1.01Zm-57-47.21c.57,0,.98,0,1.39,0,6.53,0,13.07-.05,19.6.02,4.99.05,9.12-1.78,12.33-5.49,3.16-3.65,4.46-7.91,2.76-12.59-2.11-5.79-8.03-9.72-14.24-9.73-6.82,0-13.65,0-20.47,0h-1.35v27.79Z"/>
  <path class="cls-1" d="m340.23,50.33c24.53-.11,46.24,20,46.2,45.71-.04,25.85-20.97,46.29-45.99,46.22-26.23-.07-46.46-21.19-46.08-46.71.38-25.85,22.09-45.18,45.88-45.22Zm-28.73,46c-.29,15.44,13.69,29.54,29.91,28.83,15.66-.69,28.06-14.32,27.67-29.7-.35-13.76-12.57-28.06-29.58-27.81-14.8.23-28.57,14-28.01,28.68Z"/>
  <path class="cls-1" d="m272.11,67.03c-.67,0-1.2,0-1.72,0-15.19,0-30.38-.02-45.57,0-1.45,0-2.93.02-4.35.29-4.38.82-6.9,3.43-7.39,7.87-.22,1.94-.15,3.98.21,5.89.82,4.4,4.37,7.18,8.87,7.2,6.49.02,12.98,0,19.48,0,3.89,0,7.74.34,11.44,1.6,7.22,2.46,12.15,7.4,14.85,14.42,3.67,9.55,2.51,18.74-2.89,27.34-3.81,6.06-9.66,9.13-16.64,9.92-3.91.44-7.88.47-11.83.49-13.48.05-26.97,0-40.45-.01-1.75,0-1.75-.04-1.76-1.74-.02-4.27-.04-8.54-.05-12.81,0-1.62.01-1.62,1.64-1.62,15.65,0,31.29,0,46.94-.01,3.09,0,5.93-.66,8.14-3.05,3.73-4.03,3.58-12.04-.37-15.86-2.02-1.95-4.63-2.37-7.28-2.38-7.32-.05-14.65.03-21.97-.06-4.2-.05-8.26-1-12-2.97-5.45-2.88-8.98-7.46-11.03-13.14-2.58-7.16-2.6-14.43.22-21.52,3.63-9.15,10.49-14.37,20.31-15.65,1.6-.21,3.23-.3,4.85-.3,15.73-.02,31.46,0,47.19-.03.94,0,1.21.25,1.2,1.2-.05,4.92-.02,9.85-.02,14.94Z"/>
  <path class="cls-1" d="m874.6,142.06v-16.18c.71,0,1.35,0,2,0,15.36,0,30.72,0,46.08-.04,1.16,0,2.33-.1,3.47-.31,4.55-.85,6.7-3.95,7.58-8.19.78-3.75-.21-7.14-2.56-10.01-.89-1.09-2.49-1.78-3.9-2.23-1.47-.46-3.11-.54-4.68-.55-6.95-.06-13.9.02-20.85-.07-4.16-.05-8.18-.95-11.91-2.85-5.64-2.86-9.27-7.48-11.2-13.38-.9-2.74-1.45-5.61-1.92-8.46-.55-3.34.39-6.57,1.12-9.81,1.36-6.05,4.55-10.9,9.61-14.47,4.19-2.96,8.97-4.44,14.04-4.51,11.36-.16,22.73-.09,34.09-.1,5.08,0,10.16.04,15.23,0,.99,0,1.29.28,1.28,1.27-.04,4.48-.04,8.96,0,13.44.01,1.04-.21,1.42-1.36,1.42-15.28-.04-30.55-.03-45.83,0-1.41,0-2.85.02-4.23.28-4.56.86-6.86,3.49-7.58,8.34-.32,2.15-.1,4.21.55,6.25,1.28,3.98,4.58,6.37,8.83,6.38,6.41.02,12.82-.11,19.23.05,3.31.09,6.64.48,9.89,1.09,5.51,1.04,9.54,4.44,12.95,8.7,3.4,4.24,5.03,9.21,5.41,14.46.63,8.6-1.54,16.46-7.82,22.75-3.74,3.74-8.43,5.79-13.67,6.23-4.55.38-9.14.46-13.71.48-12.94.06-25.89.02-38.84.01-.41,0-.81,0-1.34,0Z"/>
  <path class="cls-1" d="m804.48,67.59c0,.77,0,1.3,0,1.83,0,5.8.03,11.6-.01,17.4,0,.93.42,1,1.13,1,3.75-.02,7.49-.02,11.24-.02,10.49,0,20.98,0,31.46,0,1.64,0,1.68,0,1.68,1.62.02,4.69,0,9.37,0,14.06,0,.24-.07.48-.14.96-1.2,0-2.39,0-3.59,0-13.44,0-26.88-.02-40.32-.02-1.53,0-1.48,0-1.45,1.63.07,5.51.11,11.03.15,16.54,0,1.02-.43,2.51.07,2.96.63.56,2.02.31,3.09.31,13.73,0,27.47.01,41.2-.03,1.2,0,1.55.3,1.53,1.53-.09,4.72-.05,9.45-.07,14.18,0,.24-.04.49-.08.89-.64,0-1.24,0-1.85,0-19.73,0-39.45-.01-59.18.03-1.32,0-1.46-.53-1.46-1.62,0-26.46-.01-52.92-.02-79.37,0-3.07.06-6.14.02-9.21-.01-.91.24-1.28,1.19-1.24,1.16.05,2.33-.02,3.5-.02,18.73,0,37.46,0,56.19,0,1.66,0,1.7.01,1.71,1.64.04,4.6.02,9.2.06,13.8,0,.97-.28,1.2-1.31,1.18-5.74-.09-11.48-.08-17.22-.08-8.57,0-17.14.04-25.71.06-.53,0-1.07,0-1.8,0Z"/>
  <path class="cls-1" d="m648.56,48.31c15.01,31.29,30.02,62.57,45.14,94.09-.73.08-1.12.15-1.51.15-4.74,0-9.49-.03-14.23,0-1.14,0-1.83-.38-2.33-1.43-1.95-4.07-3.99-8.1-5.93-12.18-.43-.9-.93-1.28-1.98-1.28-12.82.03-25.64.03-38.46-.02-1.36,0-2.07.42-2.64,1.67-1.9,4.19-3.93,8.32-5.95,12.45-.18.36-.71.76-1.09.77-5.12.04-10.24,0-15.36-.02-.32,0-.63-.12-1.22-.23,15.06-31.4,30.06-62.66,45.06-93.92.17-.02.33-.04.5-.06Zm12.49,63.34c-4.4-8.93-8.68-17.62-13.11-26.62-4.36,9.06-8.54,17.77-12.8,26.62h25.91Z"/>
  <path class="cls-1" d="m474.96,113.96c.36.24.68.42.97.65,3.92,3.01,7.82,6.05,11.76,9.03.79.6.86,1.02.22,1.78-8.12,9.63-18.39,15.43-30.94,16.87-10.04,1.15-19.39-1.27-28.11-6.27-4.11-2.36-7.84-5.23-10.93-8.78-4.66-5.34-8.1-11.39-9.96-18.29-3.2-11.88-1.72-23.23,3.74-34.14,2.75-5.49,6.93-9.81,11.63-13.64,5.73-4.67,12.22-7.82,19.49-9.3,6.91-1.4,13.78-1.21,20.64.47,9.23,2.27,16.8,7.19,23.24,14.01.59.63,1.06,1.37,1.64,2.13-4.51,3.56-8.96,7.07-13.45,10.62-6.32-7.96-14.64-11.54-24.68-11.05-8.1.4-14.43,4.26-19.84,10.16-9.38,10.23-9.68,29.04,3.56,40.38,11.27,9.66,29.46,9.66,41.03-4.62Z"/>
  <path class="cls-1" d="m719.59,66.94c-.57,0-1.05,0-1.54,0-8.57,0-17.15-.04-25.72.01-1.26,0-1.62-.31-1.6-1.59.08-4.39.02-8.79.01-13.19,0-1.93,0-1.94,2-1.94,8.12,0,16.23,0,24.35,0,15.44,0,30.88,0,46.33,0,1.78,0,1.78,0,1.78,1.79,0,4.44-.04,8.88.04,13.31.02,1.28-.39,1.61-1.63,1.6-8.62-.05-17.23,0-25.85-.07-1.24,0-1.53.33-1.53,1.51.03,23.93.03,47.86.03,71.79,0,.21-.02.42,0,.62.17,1.16-.22,1.54-1.49,1.52-4.57-.08-9.14-.05-13.71.04-1.12.02-1.41-.27-1.41-1.37.04-12.07.04-24.14.04-36.21,0-12.36-.03-24.72-.05-37.08,0-.16-.02-.33-.06-.76Z"/>
</svg>
