<svg version="1.1" id="Layer_1" xmlns:x="ns_extend;" xmlns:i="ns_ai;" xmlns:graph="ns_graphs;" xmlns="http://www.w3.org/2000/svg" xmlns:xlink="http://www.w3.org/1999/xlink" x="0px" y="0px" viewBox="0 0 342 127" style="enable-background:new 0 0 342 127;" xml:space="preserve">
 <style type="text/css">
  .st0{fill:#21409A;}
 </style>
 <metadata>
  <sfw xmlns="ns_sfw;">
   <slices>
   </slices>
   <sliceSourceBounds bottomLeftOrigin="true" height="127" width="342" x="269.7" y="0">
   </sliceSourceBounds>
  </sfw>
 </metadata>
 <g>
  <path class="st0" d="M175.2,53.1v-6h-10.9v36.6h11.1V63.5c1.9-4.2,5.1-6.4,9.6-6.4c1.3,0,2.6,0.1,3.9,0.4V47
		c-1.1-0.4-2.3-0.5-3.5-0.5C181.8,46.5,178.4,48.7,175.2,53.1">
  </path>
  <path class="st0" d="M205.4,71.8c-3.1-3.6-3.1-9,0-12.6c3-3.3,8-3.5,11.3-0.5c0,0,0,0,0,0c0.2,0.2,0.3,0.3,0.5,0.5
		c3.1,3.6,3.1,9,0,12.6c-3,3.3-8,3.5-11.3,0.5c0,0,0,0,0,0C205.7,72.1,205.6,71.9,205.4,71.8 M224.7,79c3.6-3.7,5.4-8.2,5.4-13.5
		c0.1-5-1.8-9.9-5.4-13.5c-7.4-7.3-19.3-7.3-26.7,0c-7.2,7.5-7.2,19.4,0,26.9C205.3,86.2,217.3,86.3,224.7,79">
  </path>
  <path class="st0" d="M287.3,62c0.4-1.8,1.4-3.5,2.8-4.7c1.3-1.1,2.9-1.7,4.5-1.7c1.7,0,3.3,0.7,4.5,1.9c1.3,1.2,2.1,2.7,2.4,4.4
		L287.3,62z M294.9,46.5c-4.9-0.1-9.7,1.9-13.1,5.4c-3.6,3.6-5.4,8.1-5.4,13.6c0,5.6,1.7,10.2,5.1,13.7c3.4,3.5,7.9,5.3,13.4,5.3
		c3.7,0,6.9-0.7,9.6-2.1c2.7-1.5,5.2-3.4,7.3-5.8l-8.1-4.5c-2,1.9-4.7,2.8-8.1,2.8c-4.8,0-7.6-2.1-8.4-6.4h25.2c0-0.3,0-0.6,0.1-0.9
		c0-0.4,0.1-0.7,0.1-1c0-0.3,0-0.6,0-0.8c0-5.4-1.7-9.9-5-13.7C304.3,48.3,300.1,46.5,294.9,46.5">
  </path>
  <path class="st0" d="M338.5,46.5c-3.8,0-7.2,2.2-10.4,6.7v-6h-10.9v36.6h11.1V63.5c1.9-4.2,5.1-6.4,9.6-6.4c1.3,0,2.6,0.1,3.9,0.4
		V47C340.8,46.6,339.7,46.4,338.5,46.5">
  </path>
  <path class="st0" d="M153.7,40.3c0.2-1.3,0.3-2.5,0.3-3.8l0,0c-0.3-14.4,11.1-26.2,25.5-26.5C193.8,9.6,205.7,21,206,35.4l0,0
		c0,0.4,0,0.7,0,1.1h10.5C216.5,16.3,200.1,0,180,0c-19.9,0-36.1,15.9-36.5,35.8l0,0c0,1-0.1,2.1-0.2,3.1c-0.5,3.7-1.9,9.1-5.8,13.5
		c-3,3.5-7.2,5.8-12.4,7V35.1h-11.7v48.7h11.7V70.2c3.5-0.6,6.8-1.6,10-3.1l10.6,16.7h14.1l-15.5-23.2c0.4-0.4,0.8-0.8,1.2-1.2
		C151,52.9,153,45.4,153.7,40.3">
  </path>
  <path class="st0" d="M258.9,71.1c-3.2,3.3-8.4,3.3-11.7,0.1l-0.1-0.1c-3-3.6-3-8.8,0-12.4c3.2-3.3,8.4-3.3,11.7-0.2l0.2,0.2
		C261.9,62.3,261.9,67.6,258.9,71.1 M271.7,94.5V47.2h-10.6v3.1c-2.5-2.5-5.9-3.9-9.5-3.8c-4.7,0-8.8,1.8-12.2,5.3
		c-3.4,3.5-5.2,7.9-5.2,13.1c0,5.2,1.8,9.6,5.3,13c3.5,3.5,7.6,5.2,12.1,5.2c3.4,0.1,6.8-1,9.6-3v14.4l0,0c0,12.4-10,22.4-22.4,22.4
		s-22.4-10-22.4-22.4h-10.5c0.2,18.1,15,32.7,33.2,32.5c17.5-0.2,31.8-14,32.5-31.5l0,0V94.5L271.7,94.5z">
  </path>
  <path class="st0" d="M275.2,111.4h0.4c0.5,0,0.9-0.2,0.9-0.6c0-0.4-0.3-0.6-0.8-0.6c-0.2,0-0.3,0-0.5,0L275.2,111.4z M275.2,113.6
		h-0.9v-3.8c0.5-0.1,1-0.1,1.5-0.1c0.5,0,0.9,0.1,1.3,0.3c0.2,0.2,0.4,0.5,0.4,0.8c0,0.4-0.4,0.8-0.8,0.9v0.1
		c0.4,0.2,0.7,0.5,0.7,0.9c0,0.3,0.1,0.7,0.3,1h-1c-0.1-0.3-0.2-0.6-0.3-0.9c-0.1-0.4-0.3-0.6-0.8-0.6h-0.4V113.6z M272.8,111.6
		c-0.1,1.6,1.2,3,2.8,3c0,0,0,0,0,0h0.1c1.6,0,2.9-1.3,2.9-2.9c0,0,0,0,0,0v-0.1c0-1.6-1.3-2.9-2.9-2.9
		C274.1,108.6,272.8,110,272.8,111.6C272.8,111.6,272.8,111.6,272.8,111.6L272.8,111.6 M279.6,111.6c0.1,2.2-1.6,4-3.8,4
		c-2.2,0.1-4-1.6-4-3.8c-0.1-2.2,1.6-4,3.8-4h0.1C277.8,107.7,279.6,109.4,279.6,111.6L279.6,111.6">
  </path>
  <path class="st0" d="M36.4,78.3c0,3.4-2.9,6.2-6.3,6.1c-3.4,0-6.2-2.9-6.1-6.3c0-3.4,2.8-6.1,6.2-6.1C33.6,72,36.4,74.8,36.4,78.3
		C36.4,78.3,36.4,78.3,36.4,78.3z">
  </path>
  <ellipse class="st0" cx="81.6" cy="78.3" rx="6.2" ry="6.3">
  </ellipse>
  <path class="st0" d="M29.8,37c0-0.4,0.1-0.8,0.3-1.1c0.3-0.3,0.7-0.5,1.1-0.5h16.9c0.5,0,1,0.3,1.2,0.7c0.3,0.4,0.3,1,0,1.4
		l-8.7,15.2c-0.4,0.7-1.2,0.9-1.9,0.6c0,0,0,0,0,0c-0.1,0-0.2-0.1-0.2-0.2c-4.6-4-7.7-9.5-8.6-15.5C29.9,37.5,29.8,37.3,29.8,37z
		 M57.1,59.1c-4.1,0.4-8.3-0.3-12.1-1.9c-0.4-0.2-0.7-0.5-0.8-0.9c-0.1-0.4-0.1-0.8,0.1-1.2l10.1-17.6c0.4-0.7,1.2-0.9,1.9-0.5
		c0.2,0.1,0.4,0.3,0.5,0.5l9.7,17.1c0.4,0.7,0.2,1.6-0.5,1.9c0,0-0.1,0-0.1,0C63.2,58,60.2,58.8,57.1,59.1L57.1,59.1z M74.1,50
		c-0.6,0.8-1.3,1.5-2,2.1c-0.3,0.3-0.7,0.5-1.2,0.4c-0.4-0.1-0.8-0.3-1-0.7l-8.2-14.3c-0.3-0.4-0.3-1,0-1.4c0.2-0.4,0.7-0.7,1.2-0.7
		h15.3c0.4,0,0.8,0.2,1.1,0.5c0.3,0.3,0.4,0.7,0.3,1.1C79.2,41.8,77.2,46.3,74.1,50L74.1,50z">
  </path>
  <path class="st0" d="M84.8,35.4c-1,14.5-12.3,26.7-27.1,28c-16.4,1.5-31-10.8-32.5-27.4C23.8,21,14.2,11.2,0,10.5V21
		c8.8,0.6,14.1,6.3,15,16c1.9,21.1,19.5,37,40,37c1.2,0,2.5-0.1,3.7-0.2c20.1-1.9,35.4-18.6,36.4-38.4L84.8,35.4z">
  </path>
 </g>
</svg>