<svg version="1.1" id="Layer_1" xmlns="http://www.w3.org/2000/svg" xmlns:xlink="http://www.w3.org/1999/xlink" x="0px" y="0px" viewBox="0 0 720 149.1" style="enable-background:new 0 0 720 149.1;" xml:space="preserve">
 <style type="text/css">
  .st0{clip-path:url(#SVGID_2_);}
	.st1{clip-path:url(#SVGID_4_);fill:#E42B25;}
 </style>
 <g id="WAG_x5F_BrandRed_x5F_RGB_1_">
  <g>
   <defs>
    <rect id="SVGID_1_" x="0" width="720" height="149.1">
    </rect>
   </defs>
   <clipPath id="SVGID_2_">
    <use href="#SVGID_1_" style="overflow:visible;">
    </use>
   </clipPath>
   <g class="st0">
    <defs>
     <rect id="SVGID_3_" x="0" width="720" height="149.1">
     </rect>
    </defs>
    <clipPath id="SVGID_4_">
     <use xlink:href="#SVGID_3_" style="overflow:visible;">
     </use>
    </clipPath>
    <path class="st1" d="M683.8,87.9c13.6-17-4.2-41.9,15-48.7c-0.4-4.8-4.9-7.6-10.7-7.6c-5.2,0-10.7,2.8-14.2,7.4
				c-20.2,26.1-41.2,46.2-53.3,46.2c-4,0-5.4-1.8-5.4-5c0-9.7,12.2-24,21.6-34c1.2-1.3,1.7-2.6,1.7-3.8c0-2.9-3.4-4.9-7.5-4.9
				c-10.3,0-31.8,16.4-47.7,31.3c5.7-10.7,12-19.3,12-23.9c0-4.9-5.1-6.3-10.9-6.2c-22.6,30.1-51.7,52.3-70.3,52.3
				c-4.8,0-8.1-1.6-10.1-4c23.7-9.7,43.6-25.9,43.6-37.9c0-7.4-6.2-10.7-14.9-10.7c-22.4,0-50.6,23.8-52,47.6
				c-21.5,7.7-37.6,6.4-42.5,1c23.7-9.7,43.6-25.9,43.6-37.9c0-7.4-6.2-10.7-14.9-10.7c-22.6,0-51.1,24.2-52.1,48.2
				c-10.8,3.3-23.1,4.8-23.1-4.1c0-14.7,22-26.7,22-36.5c0-2.7-1.2-5-3.2-6.2c-7,3.6-17.4,6.6-25,6.6c1.9-6.1-0.1-10.8-6.1-10.8
				c-8.8,0-15.5,9.8-15.5,17.9c0,3.5,1.3,6,3.4,7.6c-8.7,11.7-19.7,22.4-34.6,30.9c4.4-9.2,7.9-19.1,12.6-33.1
				c11.5-6.8,17.4-20.6-5.8-20.6c-19,0-40.1,11.4-53.2,26.8c-17.2,20.1-38.1,31.3-41.8,16.1c28.4-21.3,54.8-51.5,54.5-66.6
				c-0.1-5.4-3.3-9.1-11-9.1c-18,0-60,41-63.6,77.4c-30.1,16.1-26.7-9.3-17.5-22.6c13.4-6.9,22.6-22-2.3-22
				c-36.2,0-65.9,33.6-65.4,55.1c0.1,6.4,3.3,11.6,10.1,11.6c7.8,0,20.2-5.4,33.3-18.9c-2.5,13,0.5,18.9,11.1,18.9
				c8.6,0,19.7-4.3,31.4-11.1c1.9,6.1,7,11.1,16.9,11.1c10.3,0,23-8.1,32.9-18.6c-0.5,2.3-0.8,4.6-0.8,7c0,7.5,4,11.6,10,11.6
				c6.8,0,16.9-5.4,28-15.9c-1.8,4.8-3.8,9.6-6.1,14.4c-23.9,8.5-48.7,17.6-48.7,34.2c0,7,5.8,11.2,13.2,11.2
				c18,0,40-21.4,53.8-42.4c17.1-7.7,36.9-22.1,52.3-42.9c4,0.1,8.4-0.6,12.5-1.7c-13.1,13.9-19.2,22.9-19.2,31.7
				c0,7.3,5.5,11.2,15.3,11.2c8.5,0,19.2-3,31.8-8.6c3.7,5.7,11.4,8.6,21.3,8.6c14.8,0,31.1-5,43.8-10.3c2.8,6,9.6,10.3,20.4,10.3
				c22,0,41.9-14,58.7-28.9c-7.6,11.5-18.9,28.9-3,28.9c2.5,0,6-0.4,8.9-1.4c11.3-20.6,25.9-33.9,40.5-42.6
				c-12,14.9-17,26.3-17,33.7c0,6.8,4.2,10.3,11.1,10.3c21.1,0,45.9-21.7,67.2-46.5c1.1,9.5,6.9,19.7-3.2,28.5
				c-15.3-0.4-23.8,4-23.8,11.2c0,4.4,3.7,6.8,8.9,6.8c5.3,0,10.5-1.5,15.4-3.9c8.6,2.5,17.4,5.1,27.7,5.1c15.1,0,25.7-7.6,26-20.1
				C711.4,90.8,697.5,89.1,683.8,87.9 M278.2,22.1c1.7,0,2.5,0.9,2.5,2.5c0,7.5-17.9,30.6-35.8,45.2
				C249.5,53.9,269.8,22.1,278.2,22.1 M156,79.7c0-12.6,19.6-27.5,35.3-27.5c3.2,0,6.1,0.5,8.7,1.7C181.1,83.7,156,93.5,156,79.7
				 M273.9,139.8c-1.8,0-2.9-0.9-2.9-2.7c0-4.1,8-14.6,29-22.2C291.1,129.4,280.7,139.8,273.9,139.8 M291,79.7
				c0-13,19.8-27.5,35.2-27.5c3,0,6.1,0.5,8.8,1.6C316.9,82.5,291,94,291,79.7 M460.4,50.6c2.3,0,3.8,1,3.8,3.3
				c0,6.1-12.8,16.9-28.7,24.5C435.4,67.5,452.1,50.6,460.4,50.6 M501.4,78.4c0-10.9,16.6-27.8,24.9-27.8c2.3,0,3.8,1,3.8,3.3
				C530.1,59.9,517.3,70.7,501.4,78.4">
    </path>
    <path class="st1" d="M151.2,0c-6.8,0-13.3,4-17.5,10.2c19.9,13-4.5,77.9-40.5,77.9c-4.3,0-8-1.3-10.4-3.8
				c19.5-17.6,33.6-41.4,33.6-55.5c0-7.2-3.5-11.8-11.8-11.8c-23.9,0-49.1,39.2-44.5,67.6c-15.1,5.4-22.6-1.3-22.6-14.8
				c0-28.1,29.4-57.3,27.7-66C34.8,13.1,11-8.7,0,26.8c14.8-8,28.4,4.8,45.3-4.6C30.8,39,16.2,62.6,16.4,82.6
				c0.1,13.1,7.2,22.5,22.5,22.5c8.7,0,17.7-3,26.4-8c3.7,4.7,9.7,8,18.9,8c37.4,0,78.2-52.5,78.2-89.9C162.4,5.3,158.4,0,151.2,0
				 M79.3,72.2c0.3-20.2,14.6-41.5,21.9-41.5c2.1,0,2.6,1.4,2.6,2.9C103.8,40.5,93.5,59,79.3,72.2">
    </path>
   </g>
  </g>
 </g>
</svg>